HIERARCHY
ROOT Hips
{
	OFFSET 0.000000 0.000000 0.000000
	CHANNELS 6 Xposition Yposition Zposition Xrotation Yrotation Zrotation
	JOINT LeftUpLeg_virtual
	{
		OFFSET 0.000000 0.000000 0.000000
		CHANNELS 3 Xrotation Yrotation Zrotation
		JOINT LeftUpLeg
		{
			OFFSET 10.205400 -3.823500 0.155100
			CHANNELS 3 Xrotation Yrotation Zrotation
			JOINT LeftLeg
			{
				OFFSET 0.708757 -12.982077 0.567790
				CHANNELS 3 Xrotation Yrotation Zrotation
				JOINT LeftFoot
				{
					OFFSET -0.708756 -10.717838 -2.184338
					CHANNELS 3 Xrotation Yrotation Zrotation
					JOINT LeftToeBase
					{
						OFFSET 0.108149 -7.191104 7.560241
						CHANNELS 3 Xrotation Yrotation Zrotation
						JOINT LeftToe_End
						{
							OFFSET 0.070230 0.081724 4.490308
							CHANNELS 3 Xrotation Yrotation Zrotation
							End Site
							{
								OFFSET 0 0 0
							}
						}
					}
				}
			}
		}
	}
	JOINT RightUpLeg_virtual
	{
		OFFSET 0.000000 0.000000 0.000000
		CHANNELS 3 Xrotation Yrotation Zrotation
		JOINT RightUpLeg
		{
			OFFSET -10.205400 -3.823500 0.005500
			CHANNELS 3 Xrotation Yrotation Zrotation
			JOINT RightLeg
			{
				OFFSET -0.708756 -12.982134 0.610632
				CHANNELS 3 Xrotation Yrotation Zrotation
				JOINT RightFoot
				{
					OFFSET 0.708754 -10.717769 -1.945823
					CHANNELS 3 Xrotation Yrotation Zrotation
					JOINT RightToeBase
					{
						OFFSET -0.108140 -7.191069 7.372968
						CHANNELS 3 Xrotation Yrotation Zrotation
						JOINT RightToe_End
						{
							OFFSET -0.070227 0.081735 4.479403
							CHANNELS 3 Xrotation Yrotation Zrotation
							End Site
							{
								OFFSET 0 0 0
							}
						}
					}
				}
			}
		}
	}
	JOINT Spine_virtual
	{
		OFFSET 0.000000 0.000000 0.000000
		CHANNELS 3 Xrotation Yrotation Zrotation
		JOINT Spine
		{
			OFFSET 0.000000 6.876099 0.125700
			CHANNELS 3 Xrotation Yrotation Zrotation
			JOINT Spine1
			{
				OFFSET 0.000000 5.730043 0.104720
				CHANNELS 3 Xrotation Yrotation Zrotation
				JOINT Spine1_split
				{
					OFFSET 0.000000 5.730043 0.104720
					CHANNELS 3 Xrotation Yrotation Zrotation
					JOINT Spine2
					{
						OFFSET 0.000000 5.730043 0.104720
						CHANNELS 3 Xrotation Yrotation Zrotation
						JOINT Neck_virtual
						{
							OFFSET 0.000000 0.000000 0.000000
							CHANNELS 3 Xrotation Yrotation Zrotation
							JOINT Neck
							{
								OFFSET 0.000000 10.314075 0.188496
								CHANNELS 3 Xrotation Yrotation Zrotation
								JOINT Head
								{
									OFFSET 0.000000 7.643700 -2.377400
									CHANNELS 3 Xrotation Yrotation Zrotation
									JOINT HeadTop_End
									{
										OFFSET 0.000000 43.788605 -13.619600
										CHANNELS 3 Xrotation Yrotation Zrotation
										End Site
										{
											OFFSET 0 0 0
										}
									}
								}
							}
						}
						JOINT LeftShoulder_virtual
						{
							OFFSET 0.000000 0.000000 0.000000
							CHANNELS 3 Xrotation Yrotation Zrotation
							JOINT LeftShoulder
							{
								OFFSET 2.196100 4.412489 0.087492
								CHANNELS 3 Xrotation Yrotation Zrotation
								JOINT LeftShoulder_split
								{
									OFFSET 2.196100 4.412489 0.087492
									CHANNELS 3 Xrotation Yrotation Zrotation
									JOINT LeftArm
									{
										OFFSET 8.771219 -2.981674 -0.026999
										CHANNELS 3 Xrotation Yrotation Zrotation
										JOINT LeftForeArm
										{
											OFFSET 8.512804 0.000000 -0.000000
											CHANNELS 3 Xrotation Yrotation Zrotation
											JOINT LeftHand
											{
												OFFSET 18.484802 0.000000 -0.000000
												CHANNELS 3 Xrotation Yrotation Zrotation
												End Site
												{
													OFFSET 0 0 0
												}
											}
										}
									}
								}
							}
						}
						JOINT RightShoulder_virtual
						{
							OFFSET 0.000000 0.000000 0.000000
							CHANNELS 3 Xrotation Yrotation Zrotation
							JOINT RightShoulder
							{
								OFFSET -2.196100 4.412496 0.070690
								CHANNELS 3 Xrotation Yrotation Zrotation
								JOINT RightShoulder_split
								{
									OFFSET -2.196100 4.412496 0.070690
									CHANNELS 3 Xrotation Yrotation Zrotation
									JOINT RightArm
									{
										OFFSET -8.771282 -2.981682 -0.094208
										CHANNELS 3 Xrotation Yrotation Zrotation
										JOINT RightForeArm
										{
											OFFSET -8.494598 0.000000 0.000000
											CHANNELS 3 Xrotation Yrotation Zrotation
											JOINT RightHand
											{
												OFFSET -18.483803 0.000000 0.000001
												CHANNELS 3 Xrotation Yrotation Zrotation
												End Site
												{
													OFFSET 0 0 0
												}
											}
										}
									}
								}
							}
						}
					}
				}
			}
		}
	}
}
MOTION
Frames: 6
Frame Time: 0.03333333
0.292913 33.780746 -0.252426 0.000000 0.000000 0.000000 -2.158866 6.507064 1.394480 -2.018688 8.151165 5.431071 20.846554 -2.204330 -2.603182 -22.015759 1.810599 -5.957860 -0.348584 0.416258 0.737539 0.000000 0.000000 0.000000 -2.562766 6.371708 1.013623 6.807991 -3.246267 -7.640898 14.680167 -7.870920 3.269539 -16.571977 -20.879950 4.192494 -1.995607 -1.165737 -1.907601 0.000000 0.000000 0.000000 -1.699813 5.027804 0.613289 -1.238777 -1.818371 -2.649990 0.793875 -0.240657 1.958549 1.676447 -1.419136 -0.100114 0.000000 0.000000 0.000000 0.123792 -0.132676 1.456282 7.443690 1.587175 -0.967392 -2.891341 0.149756 2.240981 0.000000 0.000000 0.000000 0.747125 0.280810 1.073928 6.710073 -25.016210 -5.992676 -0.578864 -2.203135 -1.783978 7.217392 5.064278 -79.676800 -2.298123 -16.361013 1.710435 0.000000 0.000000 0.000000 0.609773 0.263506 2.052140 1.972058 -5.994420 9.298799 0.887574 6.155808 -0.774502 7.141730 17.923492 72.920691 1.473531 15.121291 -0.577732 0.000000 0.000000 0.000000 
0.235706 33.771252 -0.299437 0.000000 0.000000 0.000000 -2.137885 6.619331 1.403394 -1.971983 8.323670 5.429054 20.856203 -2.266750 -2.663994 -22.101546 1.759184 -5.838265 -0.352724 0.414813 0.769358 0.000000 0.000000 0.000000 -2.527101 6.395675 1.020031 6.755419 -3.259627 -7.576431 14.841431 -7.899990 3.281652 -16.637169 -20.838905 4.099834 -1.988572 -1.151513 -1.934398 0.000000 0.000000 0.000000 -1.677724 4.859073 0.720994 -1.283717 -1.815515 -2.694085 0.746510 -0.263998 1.921640 1.618606 -1.415818 -0.091331 0.000000 0.000000 0.000000 0.133484 -0.126137 1.420697 7.558718 1.627602 -1.123021 -2.850909 0.293354 2.106405 0.000000 0.000000 0.000000 0.723586 0.264456 1.044870 6.760312 -25.014902 -6.025660 -0.537442 -2.009765 -2.006093 7.118554 4.790121 -79.810282 -2.314314 -16.569368 1.685721 0.000000 0.000000 0.000000 0.581726 0.255396 2.066722 1.943515 -6.001435 9.293081 0.774832 6.459557 -0.829183 7.335148 17.810572 72.874628 1.531282 15.064877 -0.647528 0.000000 0.000000 0.000000 
0.178591 33.756935 -0.310385 0.000000 0.000000 0.000000 -2.174747 6.674183 1.413134 -1.858086 8.492598 5.427480 20.776713 -2.325069 -2.672966 -22.123343 1.763023 -5.762698 -0.385206 0.414778 0.786043 0.000000 0.000000 0.000000 -2.470067 6.359445 1.032349 6.700626 -3.152441 -7.584710 15.057748 -7.878090 3.318779 -16.441263 -20.776023 4.186514 -2.208144 -1.127324 -1.996277 0.000000 0.000000 0.000000 -1.693826 4.833931 0.825638 -1.298352 -1.784410 -2.728841 0.663358 -0.287988 1.875034 1.531597 -1.310108 0.004520 0.000000 0.000000 0.000000 0.130688 -0.124892 1.398460 7.584332 1.672103 -1.347451 -2.863577 0.287968 2.006051 0.000000 0.000000 0.000000 0.676440 0.262630 1.031915 6.780135 -25.079391 -6.121829 -0.586163 -1.848533 -2.224006 7.248028 4.132232 -79.722043 -2.180985 -16.740719 1.674957 0.000000 0.000000 0.000000 0.555094 0.241946 2.051745 1.882598 -5.949165 9.367465 0.841206 6.637803 -0.957658 7.292324 17.842203 72.642948 1.536951 15.098490 -0.636610 0.000000 0.000000 0.000000 
0.131910 33.745121 -0.278034 0.000000 0.000000 0.000000 -2.249480 6.635870 1.412292 -1.686290 8.624739 5.429905 20.606046 -2.332527 -2.620841 -22.066079 1.809796 -5.736029 -0.414868 0.416997 0.775226 0.000000 0.000000 0.000000 -2.383978 6.313929 1.039447 6.690763 -2.982219 -7.631625 15.243404 -7.836104 3.356815 -16.125313 -20.691894 4.339696 -2.559796 -1.088091 -2.070966 0.000000 0.000000 0.000000 -1.703896 4.928691 0.895767 -1.264190 -1.748679 -2.749317 0.554342 -0.318674 1.827590 1.500459 -1.272633 0.174005 0.000000 0.000000 0.000000 0.112225 -0.129209 1.396981 7.543514 1.750623 -1.585514 -2.902132 0.141025 1.960090 0.000000 0.000000 0.000000 0.597961 0.266987 1.042090 6.775315 -25.195986 -6.221560 -0.675190 -1.679562 -2.457502 7.553627 3.267652 -79.373007 -1.937983 -16.875441 1.640334 0.000000 0.000000 0.000000 0.509773 0.212681 2.012474 1.795494 -5.839682 9.546353 1.055664 6.612983 -1.036883 7.076341 17.976500 72.315161 1.489502 15.311742 -0.558290 0.000000 0.000000 0.000000 
0.106066 33.743515 -0.216810 0.000000 0.000000 0.000000 -2.296881 6.523149 1.388427 -1.485509 8.666905 5.446652 20.372404 -2.264543 -2.496719 -21.951431 1.873003 -5.755664 -0.439207 0.420729 0.743943 0.000000 0.000000 0.000000 -2.289111 6.277324 1.027219 6.719175 -2.857596 -7.681635 15.382409 -7.827636 3.385878 -15.809282 -20.598725 4.456364 -2.882708 -1.031362 -2.142154 0.000000 0.000000 0.000000 -1.672914 5.028110 0.908741 -1.162377 -1.725282 -2.745599 0.429963 -0.359390 1.787292 1.530377 -1.300767 0.264776 0.000000 0.000000 0.000000 0.067715 -0.143714 1.416634 7.454969 1.855071 -1.776357 -2.964257 -0.100465 1.971008 0.000000 0.000000 0.000000 0.497212 0.271677 1.074428 6.772043 -25.339389 -6.219905 -0.692136 -1.540784 -2.686834 7.977630 2.350849 -78.790118 -1.668372 -17.066952 1.541902 0.000000 0.000000 0.000000 0.430636 0.161039 1.957635 1.688932 -5.692321 9.798937 1.357031 6.433335 -1.077536 6.743188 18.186982 71.980755 1.404501 15.847333 -0.412219 0.000000 0.000000 0.000000 
0.098396 33.749191 -0.150478 0.000000 0.000000 0.000000 -2.289835 6.372972 1.337218 -1.268054 8.557560 5.469674 20.140443 -2.113185 -2.288933 -21.838671 1.920157 -5.812114 -0.452475 0.423786 0.707386 0.000000 0.000000 0.000000 -2.207170 6.221929 0.993802 6.736231 -2.865211 -7.709870 15.539090 -7.865199 3.423238 -15.543475 -20.493177 4.554924 -3.127977 -0.963231 -2.203241 0.000000 0.000000 0.000000 -1.605020 5.057045 0.856712 -0.967461 -1.724789 -2.716047 0.301727 -0.412808 1.756934 1.641380 -1.325020 0.338998 0.000000 0.000000 0.000000 -0.014905 -0.167896 1.448124 7.338087 1.985494 -1.895736 -3.018683 -0.402764 2.041936 0.000000 0.000000 0.000000 0.374464 0.273394 1.123771 6.791037 -25.487230 -6.052401 -0.570953 -1.453920 -2.871985 8.387367 1.519418 -78.079000 -1.423485 -17.291271 1.363570 0.000000 0.000000 0.000000 0.313148 0.095133 1.894686 1.573727 -5.528609 10.062415 1.752630 6.169260 -1.050246 6.335254 18.431351 71.722362 1.311069 16.698807 -0.213820 0.000000 0.000000 0.000000 
